<svg width="24" height="24" viewBox="0 0 24 24" fill="none" xmlns="http://www.w3.org/2000/svg">
<path d="M12.0168 15.4031C13.9783 15.4031 15.5683 13.8622 15.5683 11.9615C15.5683 10.0608 13.9783 8.52002 12.0168 8.52002C10.0554 8.52002 8.46533 10.0608 8.46533 11.9615C8.46533 13.8622 10.0554 15.4031 12.0168 15.4031Z" fill="white"/>
<path d="M17.5142 12.1538C17.5142 15.0954 15.053 17.4797 12.0171 17.4797C8.98122 17.4797 6.52008 15.0954 6.52008 12.1538C6.52008 11.6267 6.59963 11.1175 6.74695 10.6365H5.12256V18.107C5.12256 18.494 5.43879 18.81 5.82549 18.81H18.1407C18.5277 18.81 18.8442 18.494 18.8442 18.107V10.6365H17.2873C17.4344 11.1175 17.5142 11.6267 17.5142 12.1538Z" fill="white"/>
<path d="M16.0404 8.62054H18.0392C18.4772 8.62054 18.8352 8.26257 18.8352 7.82455V5.91879C18.8352 5.48053 18.4772 5.12256 18.0392 5.12256H16.0404C15.6021 5.12256 15.2441 5.48053 15.2441 5.91879V7.82455C15.2439 8.26232 15.6021 8.62054 16.0404 8.62054Z" fill="white"/>
<path d="M12 0C5.37256 0 0 5.37256 0 12C0 18.6274 5.37256 24 12 24C18.6274 24 24 18.6274 24 12C24 5.37256 18.6274 0 12 0ZM18.5727 20.8428H5.42756C4.17858 20.8428 3.15744 19.9184 3.15744 18.5732V5.42731C3.15744 4.0816 4.17858 3.15744 5.42756 3.15744H18.5727C19.8214 3.15744 20.8428 4.0816 20.8428 5.42731V18.5732C20.8428 19.9184 19.8212 20.8428 18.5727 20.8428Z" fill="white"/>
</svg>
