<svg width="81" height="41" viewBox="0 0 81 41" fill="none" xmlns="http://www.w3.org/2000/svg">
<path d="M38.9748 12.7662V5.66697H43.0719V6.42451H39.8745V12.7662H38.9748Z" fill="white"/>
<path d="M42.755 12.8961C42.6538 12.8961 42.5671 12.8889 42.4949 12.8744C42.4298 12.86 42.3576 12.8384 42.2781 12.8095L42.4515 11.987C42.4876 12.0015 42.5238 12.0123 42.5599 12.0195C42.596 12.0267 42.6394 12.0303 42.69 12.0303C42.8778 12.0303 43.0296 11.9437 43.1452 11.7706C43.2608 11.5902 43.3439 11.3052 43.3945 10.9157C43.4667 10.3457 43.5354 9.77934 43.6004 9.21659C43.6654 8.64663 43.7305 8.07667 43.7955 7.50671H47.0363V12.7662H46.1367V8.23179H44.5C44.4422 8.71517 44.3844 9.20216 44.3266 9.69276C44.2688 10.1761 44.211 10.6595 44.1532 11.1429C44.0014 12.3117 43.5354 12.8961 42.755 12.8961Z" fill="white"/>
<path d="M50.0304 12.8961C49.5897 12.8961 49.2212 12.7662 48.9249 12.5065C48.6359 12.2468 48.4914 11.8788 48.4914 11.4026C48.4914 10.8255 48.7479 10.3854 49.2609 10.0824C49.7739 9.77213 50.5941 9.55568 51.7213 9.43303C51.7213 9.2671 51.7032 9.10477 51.6671 8.94604C51.6382 8.78732 51.584 8.64663 51.5045 8.52398C51.425 8.40133 51.313 8.30394 51.1685 8.23179C51.0312 8.15243 50.8542 8.11275 50.6374 8.11275C50.3339 8.11275 50.0485 8.17046 49.7812 8.2859C49.5138 8.40133 49.2753 8.5312 49.0658 8.67549L48.719 8.05864C48.9646 7.89991 49.2645 7.7484 49.6186 7.60411C49.9726 7.4526 50.3628 7.37685 50.7891 7.37685C51.4322 7.37685 51.8983 7.57525 52.1873 7.97206C52.4764 8.36165 52.6209 8.88472 52.6209 9.54126V12.7662H51.8839L51.808 12.1385H51.7755C51.5226 12.3478 51.2516 12.5281 50.9626 12.6796C50.6735 12.8239 50.3628 12.8961 50.0304 12.8961ZM50.2906 12.1818C50.5435 12.1818 50.7819 12.1241 51.0059 12.0087C51.2299 11.886 51.4684 11.7093 51.7213 11.4784V10.0174C51.2805 10.0751 50.9084 10.1437 50.6049 10.223C50.3086 10.3024 50.0666 10.3962 49.8787 10.5044C49.6981 10.6126 49.5644 10.7389 49.4777 10.8832C49.3982 11.0203 49.3584 11.1718 49.3584 11.3377C49.3584 11.6407 49.4488 11.8572 49.6294 11.987C49.8101 12.1169 50.0304 12.1818 50.2906 12.1818Z" fill="white"/>
<path d="M54.2782 12.7662V7.50671H56.305C56.594 7.50671 56.8578 7.53196 57.0962 7.58247C57.3347 7.63297 57.537 7.71233 57.7032 7.82055C57.8766 7.92156 58.0103 8.05864 58.1042 8.23179C58.1982 8.39773 58.2451 8.59974 58.2451 8.83782C58.2451 9.13363 58.1656 9.37532 58.0067 9.5629C57.8549 9.75048 57.6418 9.88395 57.3672 9.96331V9.99578C57.5189 10.0319 57.6598 10.0824 57.7899 10.1473C57.9272 10.2122 58.0464 10.2952 58.1476 10.3962C58.2487 10.4972 58.3282 10.6199 58.386 10.7641C58.4438 10.9084 58.4727 11.0744 58.4727 11.262C58.4727 11.5217 58.4185 11.7453 58.3102 11.9329C58.209 12.1205 58.0645 12.2792 57.8766 12.4091C57.696 12.5317 57.4792 12.6219 57.2263 12.6796C56.9734 12.7374 56.6952 12.7662 56.3917 12.7662H54.2782ZM55.1561 9.71441H56.1533C56.594 9.71441 56.9084 9.64587 57.0962 9.50879C57.2841 9.3645 57.378 9.1697 57.378 8.9244C57.378 8.6791 57.2877 8.48791 57.1071 8.35083C56.9264 8.21375 56.6302 8.14521 56.2183 8.14521H55.1561V9.71441ZM55.1561 12.1277H56.2942C56.7277 12.1277 57.0493 12.0484 57.2588 11.8896C57.4756 11.7309 57.584 11.5037 57.584 11.2078C57.584 10.9409 57.472 10.7317 57.248 10.5802C57.024 10.4287 56.688 10.3529 56.24 10.3529H55.1561V12.1277Z" fill="white"/>
<path d="M59.7822 12.7662V7.50671H60.671V9.63865H63.2072V7.50671H64.096V12.7662H63.2072V10.4287H60.671V12.7662H59.7822Z" fill="white"/>
<path d="M65.8683 12.7662V7.50671H66.7571V9.44386H67.505C67.8157 9.44386 68.0975 9.47632 68.3504 9.54126C68.6105 9.60619 68.8309 9.70719 69.0115 9.84427C69.1994 9.97414 69.3439 10.1437 69.4451 10.3529C69.5463 10.5549 69.5968 10.8002 69.5968 11.0888C69.5968 11.3846 69.5463 11.6371 69.4451 11.8463C69.3439 12.0556 69.1994 12.2287 69.0115 12.3658C68.8309 12.5029 68.6105 12.6039 68.3504 12.6688C68.0975 12.7338 67.8157 12.7662 67.505 12.7662H65.8683ZM66.7571 12.052H67.4074C68.2817 12.052 68.7189 11.7309 68.7189 11.0888C68.7189 10.7569 68.6105 10.5152 68.3937 10.3637C68.1842 10.2122 67.8554 10.1365 67.4074 10.1365H66.7571V12.052ZM70.5073 12.7662V7.50671H71.3961V12.7662H70.5073Z" fill="white"/>
<path d="M73.1717 12.7662V7.50671H74.0388V9.69276C74.0388 9.97414 74.028 10.2844 74.0063 10.6235C73.9919 10.9553 73.9738 11.2908 73.9521 11.6299H73.9955C74.0966 11.464 74.2122 11.2764 74.3423 11.0672C74.4796 10.8579 74.5952 10.6704 74.6891 10.5044L76.6835 7.50671H77.518V12.7662H76.6509V10.5802C76.6509 10.2988 76.6582 9.99217 76.6726 9.6603C76.6943 9.32121 76.716 8.97851 76.7376 8.6322H76.6943C76.5931 8.79814 76.4739 8.98933 76.3366 9.20577C76.2066 9.415 76.0946 9.59897 76.0006 9.7577L73.9955 12.7662H73.1717ZM75.372 6.5652C75.0685 6.5652 74.812 6.5183 74.6024 6.42451C74.3929 6.33072 74.2195 6.20807 74.0822 6.05656C73.9449 5.89784 73.8437 5.72108 73.7787 5.52628C73.7137 5.32427 73.6775 5.11865 73.6703 4.90942H74.4073C74.4146 5.06093 74.4326 5.20883 74.4615 5.35313C74.4977 5.49021 74.5519 5.60925 74.6241 5.71025C74.7036 5.81126 74.8011 5.89423 74.9168 5.95916C75.0396 6.01688 75.1913 6.04574 75.372 6.04574C75.5526 6.04574 75.7007 6.01688 75.8164 5.95916C75.9392 5.89423 76.0367 5.81126 76.109 5.71025C76.1885 5.60925 76.2427 5.49021 76.2716 5.35313C76.3077 5.20883 76.3294 5.06093 76.3366 4.90942H77.0736C77.0592 5.11865 77.0194 5.32427 76.9544 5.52628C76.8966 5.72108 76.7991 5.89784 76.6618 6.05656C76.5245 6.20807 76.3511 6.33072 76.1415 6.42451C75.932 6.5183 75.6755 6.5652 75.372 6.5652Z" fill="white"/>
<path d="M41.5978 26.0371C41.1498 26.0371 40.7379 25.9506 40.3622 25.7774C39.9937 25.6042 39.6757 25.3589 39.4084 25.0415C39.141 24.7168 38.9315 24.3272 38.7797 23.8727C38.6352 23.411 38.563 22.8951 38.563 22.3252C38.563 21.7552 38.6352 21.2466 38.7797 20.7993C38.9315 20.3447 39.141 19.9624 39.4084 19.6521C39.6757 19.3347 39.9937 19.093 40.3622 18.9271C40.7379 18.7611 41.1498 18.6781 41.5978 18.6781C42.0458 18.6781 42.4541 18.7647 42.8226 18.9379C43.1983 19.1038 43.5199 19.3455 43.7872 19.663C44.0618 19.9732 44.2713 20.3556 44.4158 20.8101C44.5676 21.2574 44.6435 21.7624 44.6435 22.3252C44.6435 22.8951 44.5676 23.411 44.4158 23.8727C44.2713 24.3272 44.0618 24.7168 43.7872 25.0415C43.5199 25.3589 43.1983 25.6042 42.8226 25.7774C42.4541 25.9506 42.0458 26.0371 41.5978 26.0371ZM41.5978 25.2471C41.9157 25.2471 42.2012 25.1786 42.4541 25.0415C42.7142 24.9044 42.9346 24.7096 43.1152 24.4571C43.3031 24.1974 43.4476 23.8908 43.5488 23.5372C43.6499 23.1765 43.7005 22.7725 43.7005 22.3252C43.7005 21.8851 43.6499 21.4883 43.5488 21.1347C43.4476 20.7812 43.3031 20.4818 43.1152 20.2365C42.9346 19.9912 42.7142 19.8036 42.4541 19.6738C42.2012 19.5367 41.9157 19.4682 41.5978 19.4682C41.2799 19.4682 40.9908 19.5367 40.7307 19.6738C40.4778 19.8036 40.2574 19.9912 40.0695 20.2365C39.8889 20.4818 39.748 20.7812 39.6468 21.1347C39.5457 21.4883 39.4951 21.8851 39.4951 22.3252C39.4951 22.7725 39.5457 23.1765 39.6468 23.5372C39.748 23.8908 39.8889 24.1974 40.0695 24.4571C40.2574 24.7096 40.4778 24.9044 40.7307 25.0415C40.9908 25.1786 41.2799 25.2471 41.5978 25.2471Z" fill="white"/>
<path d="M46.0857 25.9073V20.6478H46.9744V22.8122H47.9933L48.5135 21.6434C48.6147 21.4125 48.7159 21.2249 48.817 21.0806C48.9182 20.9363 49.0266 20.8245 49.1422 20.7452C49.2578 20.6586 49.377 20.6009 49.4999 20.572C49.6227 20.5359 49.7564 20.5179 49.9009 20.5179C50.0165 20.5179 50.1177 20.5359 50.2044 20.572L50.0526 21.4053C50.0165 21.3909 49.9876 21.3837 49.9659 21.3837C49.9442 21.3837 49.9153 21.3837 49.8792 21.3837C49.807 21.3837 49.7383 21.3945 49.6733 21.4161C49.6155 21.4306 49.554 21.463 49.489 21.5135C49.4312 21.564 49.3698 21.6362 49.3048 21.73C49.2397 21.8238 49.1747 21.9464 49.1097 22.0979L48.6653 23.1368L50.4537 25.9073H49.4782L48.015 23.5372H46.9744V25.9073H46.0857Z" fill="white"/>
<path d="M53.3524 26.0371C53.0272 26.0371 52.7165 25.9758 52.4203 25.8532C52.1312 25.7305 51.8747 25.5537 51.6507 25.3229C51.4267 25.0848 51.2461 24.7962 51.1088 24.4571C50.9787 24.1108 50.9137 23.7212 50.9137 23.2883C50.9137 22.8482 50.9787 22.4586 51.1088 22.1196C51.2461 21.7732 51.4267 21.4811 51.6507 21.243C51.8747 21.0049 52.1312 20.8245 52.4203 20.7019C52.7165 20.5792 53.0272 20.5179 53.3524 20.5179C53.6776 20.5179 53.9847 20.5792 54.2737 20.7019C54.5699 20.8245 54.8301 21.0049 55.0541 21.243C55.2781 21.4811 55.4551 21.7732 55.5852 22.1196C55.7225 22.4586 55.7911 22.8482 55.7911 23.2883C55.7911 23.7212 55.7225 24.1108 55.5852 24.4571C55.4551 24.7962 55.2781 25.0848 55.0541 25.3229C54.8301 25.5537 54.5699 25.7305 54.2737 25.8532C53.9847 25.9758 53.6776 26.0371 53.3524 26.0371ZM53.3524 25.3012C53.5764 25.3012 53.7823 25.2543 53.9702 25.1605C54.1581 25.0595 54.317 24.9225 54.4471 24.7493C54.5844 24.5689 54.6892 24.3561 54.7614 24.1108C54.8337 23.8655 54.8698 23.5913 54.8698 23.2883C54.8698 22.9853 54.8337 22.7112 54.7614 22.4659C54.6892 22.2133 54.5844 21.9969 54.4471 21.8165C54.317 21.6362 54.1581 21.4991 53.9702 21.4053C53.7823 21.3043 53.5764 21.2538 53.3524 21.2538C53.1284 21.2538 52.9225 21.3043 52.7346 21.4053C52.5467 21.4991 52.3842 21.6362 52.2469 21.8165C52.1168 21.9969 52.0156 22.2133 51.9434 22.4659C51.8711 22.7112 51.835 22.9853 51.835 23.2883C51.835 23.5913 51.8711 23.8655 51.9434 24.1108C52.0156 24.3561 52.1168 24.5689 52.2469 24.7493C52.3842 24.9225 52.5467 25.0595 52.7346 25.1605C52.9225 25.2543 53.1284 25.3012 53.3524 25.3012Z" fill="white"/>
<path d="M57.1784 25.9073V20.6478H58.0671V22.7797H60.6034V20.6478H61.4921V25.9073H60.6034V23.5697H58.0671V25.9073H57.1784Z" fill="white"/>
<path d="M63.2645 25.9073V20.6478H64.1533V22.7797H66.6895V20.6478H67.5783V25.9073H66.6895V23.5697H64.1533V25.9073H63.2645Z" fill="white"/>
<path d="M69.3507 25.9073V20.6478H70.2394V22.5849H70.9873C71.298 22.5849 71.5798 22.6174 71.8327 22.6823C72.0929 22.7472 72.3132 22.8482 72.4939 22.9853C72.6818 23.1152 72.8263 23.2847 72.9274 23.494C73.0286 23.696 73.0792 23.9413 73.0792 24.2298C73.0792 24.5257 73.0286 24.7782 72.9274 24.9874C72.8263 25.1966 72.6818 25.3698 72.4939 25.5069C72.3132 25.6439 72.0929 25.7449 71.8327 25.8099C71.5798 25.8748 71.298 25.9073 70.9873 25.9073H69.3507ZM70.2394 25.193H70.8898C71.7641 25.193 72.2012 24.872 72.2012 24.2298C72.2012 23.898 72.0929 23.6563 71.8761 23.5048C71.6665 23.3533 71.3378 23.2775 70.8898 23.2775H70.2394V25.193ZM73.9896 25.9073V20.6478H74.8784V25.9073H73.9896Z" fill="white"/>
<path d="M76.6541 25.9073V20.6478H77.5212V22.8338C77.5212 23.1152 77.5103 23.4254 77.4886 23.7645C77.4742 24.0964 77.4561 24.4319 77.4345 24.771H77.4778C77.579 24.605 77.6946 24.4174 77.8246 24.2082C77.9619 23.999 78.0775 23.8114 78.1715 23.6455L80.1658 20.6478H81.0004V25.9073H80.1333V23.7212C80.1333 23.4398 80.1405 23.1332 80.155 22.8013C80.1766 22.4623 80.1983 22.1196 80.22 21.7732H80.1766C80.0755 21.9392 79.9562 22.1304 79.819 22.3468C79.6889 22.556 79.5769 22.74 79.483 22.8987L77.4778 25.9073H76.6541ZM78.8543 19.7062C78.5508 19.7062 78.2943 19.6593 78.0848 19.5656C77.8752 19.4718 77.7018 19.3491 77.5645 19.1976C77.4272 19.0389 77.3261 18.8621 77.261 18.6673C77.196 18.4653 77.1599 18.2597 77.1526 18.0505H77.8897C77.8969 18.202 77.915 18.3499 77.9439 18.4942C77.98 18.6312 78.0342 18.7503 78.1064 18.8513C78.1859 18.9523 78.2835 19.0353 78.3991 19.1002C78.5219 19.1579 78.6737 19.1868 78.8543 19.1868C79.035 19.1868 79.1831 19.1579 79.2987 19.1002C79.4215 19.0353 79.5191 18.9523 79.5913 18.8513C79.6708 18.7503 79.725 18.6312 79.7539 18.4942C79.7901 18.3499 79.8117 18.202 79.819 18.0505H80.556C80.5415 18.2597 80.5018 18.4653 80.4368 18.6673C80.379 18.8621 80.2814 19.0389 80.1441 19.1976C80.0068 19.3491 79.8334 19.4718 79.6239 19.5656C79.4143 19.6593 79.1578 19.7062 78.8543 19.7062Z" fill="white"/>
<path d="M41.0125 39.1782C40.4923 39.1782 40.0262 39.0988 39.6143 38.9401C39.2025 38.7741 38.8159 38.5072 38.4546 38.1393L38.964 37.5224C39.2747 37.8398 39.589 38.0635 39.907 38.1934C40.2249 38.3232 40.5898 38.3882 41.0017 38.3882C41.2329 38.3882 41.4497 38.3593 41.652 38.3016C41.8543 38.2367 42.0313 38.1465 42.1831 38.031C42.3348 37.9084 42.4541 37.7605 42.5408 37.5873C42.6347 37.4142 42.6817 37.2158 42.6817 36.9921C42.6817 36.5376 42.5155 36.2021 42.1831 35.9857C41.8507 35.7692 41.3774 35.661 40.7632 35.661H39.9612V34.9684H40.5465C41.1751 34.9684 41.6267 34.8674 41.9013 34.6654C42.1759 34.4562 42.3132 34.1495 42.3132 33.7455C42.3132 33.3703 42.1795 33.089 41.9121 32.9014C41.652 32.7066 41.3232 32.6092 40.9258 32.6092C40.5934 32.6092 40.2863 32.6705 40.0045 32.7932C39.7227 32.9086 39.4734 33.0673 39.2567 33.2693L38.7689 32.6633C39.0218 32.4108 39.3397 32.2088 39.7227 32.0573C40.1057 31.8985 40.5139 31.8192 40.9475 31.8192C41.2799 31.8192 41.5833 31.8625 41.8579 31.9491C42.1397 32.0284 42.3782 32.1475 42.5733 32.3062C42.7756 32.4577 42.931 32.6489 43.0393 32.8797C43.1477 33.1034 43.2019 33.3559 43.2019 33.6373C43.2019 34.0125 43.1116 34.3443 42.931 34.6329C42.7503 34.9143 42.4866 35.1163 42.1397 35.239V35.2822C42.5516 35.3616 42.8912 35.5528 43.1586 35.8558C43.4331 36.1516 43.5704 36.5448 43.5704 37.0354C43.5704 37.3745 43.5018 37.6775 43.3645 37.9445C43.2344 38.2114 43.0538 38.4387 42.8226 38.6262C42.5913 38.8066 42.3204 38.9437 42.0097 39.0375C41.699 39.1313 41.3666 39.1782 41.0125 39.1782Z" fill="white"/>
<path d="M46.1035 39.1782C45.6628 39.1782 45.2943 39.0483 44.998 38.7886C44.709 38.5289 44.5645 38.1609 44.5645 37.6847C44.5645 37.1076 44.821 36.6675 45.334 36.3644C45.847 36.0542 46.6672 35.8378 47.7944 35.7151C47.7944 35.5492 47.7763 35.3869 47.7402 35.2281C47.7113 35.0694 47.6571 34.9287 47.5776 34.8061C47.4981 34.6834 47.3861 34.586 47.2416 34.5139C47.1043 34.4345 46.9273 34.3948 46.7105 34.3948C46.407 34.3948 46.1216 34.4526 45.8543 34.568C45.5869 34.6834 45.3485 34.8133 45.1389 34.9576L44.7921 34.3407C45.0377 34.182 45.3376 34.0305 45.6917 33.8862C46.0457 33.7347 46.4359 33.6589 46.8623 33.6589C47.5053 33.6589 47.9714 33.8573 48.2604 34.2541C48.5495 34.6437 48.694 35.1668 48.694 35.8233V39.0483H47.957L47.8811 38.4206H47.8486C47.5957 38.6299 47.3247 38.8102 47.0357 38.9617C46.7466 39.106 46.4359 39.1782 46.1035 39.1782ZM46.3637 38.4639C46.6166 38.4639 46.855 38.4062 47.079 38.2908C47.303 38.1681 47.5415 37.9914 47.7944 37.7605V36.2995C47.3536 36.3572 46.9815 36.4258 46.678 36.5051C46.3817 36.5845 46.1397 36.6783 45.9518 36.7865C45.7712 36.8947 45.6375 37.021 45.5508 37.1653C45.4713 37.3024 45.4315 37.4539 45.4315 37.6198C45.4315 37.9228 45.5219 38.1393 45.7025 38.2691C45.8832 38.399 46.1035 38.4639 46.3637 38.4639Z" fill="white"/>
<path d="M50.3513 39.0483V33.7888H52.3781C52.6671 33.7888 52.9309 33.8141 53.1693 33.8646C53.4078 33.9151 53.6101 33.9944 53.7763 34.1026C53.9497 34.2036 54.0834 34.3407 54.1773 34.5139C54.2713 34.6798 54.3182 34.8818 54.3182 35.1199C54.3182 35.4157 54.2387 35.6574 54.0798 35.845C53.928 36.0326 53.7149 36.166 53.4403 36.2454V36.2779C53.592 36.3139 53.7329 36.3644 53.863 36.4294C54.0003 36.4943 54.1195 36.5773 54.2207 36.6783C54.3218 36.7793 54.4013 36.9019 54.4591 37.0462C54.5169 37.1905 54.5458 37.3565 54.5458 37.544C54.5458 37.8038 54.4916 38.0274 54.3833 38.215C54.2821 38.4026 54.1376 38.5613 53.9497 38.6912C53.7691 38.8138 53.5523 38.904 53.2994 38.9617C53.0465 39.0195 52.7683 39.0483 52.4648 39.0483H50.3513ZM51.2292 35.9965H52.2264C52.6671 35.9965 52.9815 35.928 53.1693 35.7909C53.3572 35.6466 53.4511 35.4518 53.4511 35.2065C53.4511 34.9612 53.3608 34.77 53.1802 34.6329C52.9995 34.4958 52.7033 34.4273 52.2914 34.4273H51.2292V35.9965ZM51.2292 38.4098H52.3673C52.8008 38.4098 53.1224 38.3304 53.3319 38.1717C53.5487 38.013 53.6571 37.7857 53.6571 37.4899C53.6571 37.223 53.5451 37.0138 53.3211 36.8623C53.0971 36.7107 52.7611 36.635 52.3131 36.635H51.2292V38.4098Z" fill="white"/>
<path d="M57.9038 39.1782C57.5786 39.1782 57.2679 39.1169 56.9717 38.9942C56.6826 38.8716 56.4261 38.6948 56.2021 38.4639C55.9781 38.2258 55.7975 37.9372 55.6602 37.5982C55.5301 37.2519 55.4651 36.8623 55.4651 36.4294C55.4651 35.9893 55.5301 35.5997 55.6602 35.2606C55.7975 34.9143 55.9781 34.6221 56.2021 34.384C56.4261 34.1459 56.6826 33.9656 56.9717 33.8429C57.2679 33.7203 57.5786 33.6589 57.9038 33.6589C58.229 33.6589 58.536 33.7203 58.8251 33.8429C59.1213 33.9656 59.3815 34.1459 59.6055 34.384C59.8295 34.6221 60.0065 34.9143 60.1366 35.2606C60.2738 35.5997 60.3425 35.9893 60.3425 36.4294C60.3425 36.8623 60.2738 37.2519 60.1366 37.5982C60.0065 37.9372 59.8295 38.2258 59.6055 38.4639C59.3815 38.6948 59.1213 38.8716 58.8251 38.9942C58.536 39.1169 58.229 39.1782 57.9038 39.1782ZM57.9038 38.4423C58.1278 38.4423 58.3337 38.3954 58.5216 38.3016C58.7095 38.2006 58.8684 38.0635 58.9985 37.8904C59.1358 37.71 59.2406 37.4972 59.3128 37.2519C59.3851 37.0066 59.4212 36.7324 59.4212 36.4294C59.4212 36.1264 59.3851 35.8522 59.3128 35.6069C59.2406 35.3544 59.1358 35.1379 58.9985 34.9576C58.8684 34.7772 58.7095 34.6401 58.5216 34.5463C58.3337 34.4453 58.1278 34.3948 57.9038 34.3948C57.6798 34.3948 57.4739 34.4453 57.286 34.5463C57.0981 34.6401 56.9355 34.7772 56.7982 34.9576C56.6682 35.1379 56.567 35.3544 56.4948 35.6069C56.4225 35.8522 56.3864 36.1264 56.3864 36.4294C56.3864 36.7324 56.4225 37.0066 56.4948 37.2519C56.567 37.4972 56.6682 37.71 56.7982 37.8904C56.9355 38.0635 57.0981 38.2006 57.286 38.3016C57.4739 38.3954 57.6798 38.4423 57.9038 38.4423Z" fill="white"/>
<path d="M61.914 39.0483V40.9097H61.1445L61.0469 38.886V38.3232H61.307C61.3793 38.2799 61.4479 38.2222 61.513 38.1501C61.5852 38.0707 61.6503 37.9517 61.7081 37.793C61.7659 37.6342 61.8237 37.4214 61.8815 37.1545C61.9393 36.8875 61.9935 36.5412 62.0441 36.1155L62.3259 33.7888H65.5991V38.3232H66.3687V38.886L66.282 40.9097H65.5124V39.0483H61.914ZM62.8245 36.2887C62.7666 36.8081 62.6872 37.2302 62.586 37.5549C62.4921 37.8795 62.3837 38.1357 62.2608 38.3232H64.7104V34.5139H63.0304L62.8245 36.2887Z" fill="white"/>
<g clip-path="url(#clip0_410_2376)">
<path d="M30.2228 3.91504V5.11356H32.0629V12.0906C31.323 11.8368 30.7861 11.0977 30.7861 10.2272H29.6595C29.6595 11.3066 28.834 12.1848 27.8194 12.1848V13.3833C28.834 13.3833 29.6595 14.2615 29.6595 15.3409H30.7861C30.7861 14.4705 31.323 13.7313 32.0629 13.4775V39.7108H1.94497V5.11356H25.4159V3.91504H0.818359V40.9093H33.1895V3.91504H30.2228ZM30.2228 13.4939C30.0372 13.2213 29.8118 12.9815 29.5555 12.7841C29.8118 12.5866 30.0372 12.3468 30.2228 12.0742C30.4084 12.3468 30.6338 12.5866 30.89 12.7841C30.6338 12.9815 30.4084 13.2213 30.2228 13.4939Z" fill="white"/>
<path d="M3.22168 6.47192V20.4546H4.34829V7.67044H15.2388V37.154H4.34829V25.5683H3.22168V38.3525H16.3654V6.47192H3.22168Z" fill="white"/>
<path d="M17.6426 6.47192V35.1964H18.7692V7.67044H30.223V6.47192H17.6426Z" fill="white"/>
<path d="M29.6594 17.8977V37.1539H18.2056V38.3524H30.786V17.8977H29.6594Z" fill="white"/>
<path d="M8.19372 9.20413L5.79004 11.7612L6.58666 12.6087L8.99034 10.0516L8.19372 9.20413Z" fill="white"/>
<path d="M10.5968 9.20453L5.79004 14.3181L6.58666 15.1656L11.3934 10.052L10.5968 9.20453Z" fill="white"/>
<path d="M22.6136 9.20413L20.21 11.7612L21.0066 12.6087L23.4103 10.0516L22.6136 9.20413Z" fill="white"/>
<path d="M25.0172 9.20452L20.2104 14.3181L21.0071 15.1656L25.8138 10.052L25.0172 9.20452Z" fill="white"/>
<path d="M6.75189 20.4546H5.62528C5.62528 21.534 4.79978 22.4122 3.78516 22.4122V23.6107C4.79978 23.6107 5.62528 24.4889 5.62528 25.5683H6.75189C6.75189 24.4889 7.57739 23.6107 8.59201 23.6107V22.4122C7.57739 22.4122 6.75189 21.534 6.75189 20.4546ZM6.18858 23.7213C6.00299 23.4486 5.7776 23.2089 5.52133 23.0114C5.7776 22.814 6.00299 22.5742 6.18858 22.3016C6.37417 22.5742 6.59957 22.814 6.85584 23.0114C6.59957 23.2089 6.37417 23.4486 6.18858 23.7213Z" fill="white"/>
<path d="M28.3827 0H27.2561C27.2561 1.07938 26.4306 1.95758 25.416 1.95758V3.1561C26.4306 3.1561 27.2561 4.03429 27.2561 5.11368H28.3827C28.3827 4.03429 29.2082 3.1561 30.2229 3.1561V1.95758C29.2082 1.95758 28.3827 1.07938 28.3827 0ZM27.8194 3.26668C27.6339 2.99406 27.4085 2.75427 27.1522 2.55684C27.4085 2.3594 27.6339 2.11962 27.8194 1.847C28.005 2.11962 28.2304 2.3594 28.4867 2.55684C28.2304 2.75427 28.005 2.99406 27.8194 3.26668Z" fill="white"/>
<path d="M27.8194 21.813H26.6177V23.0115H27.8194V21.813Z" fill="white"/>
<path d="M24.815 21.813H23.6133V23.0115H24.815V21.813Z" fill="white"/>
<path d="M21.8106 21.813H20.6089V23.0115H21.8106V21.813Z" fill="white"/>
</g>
<defs>
<clipPath id="clip0_410_2376">
<rect width="33.5457" height="40.9094" fill="white"/>
</clipPath>
</defs>
</svg>
