<svg width="81" height="35" viewBox="0 0 81 35" fill="none" xmlns="http://www.w3.org/2000/svg">
<mask id="mask0_410_2484" style="mask-type:alpha" maskUnits="userSpaceOnUse" x="21" y="2" width="40" height="31">
<g clip-path="url(#clip0_410_2484)">
<path d="M35.6665 23.1878L37.6982 11.8752H40.8729L38.9046 23.1878H35.6665Z" fill="#3C58BF"/>
<path d="M35.6665 23.1878L38.2697 11.8752H40.8729L38.9046 23.1878H35.6665Z" fill="#293688"/>
<path d="M50.3969 12.0008C49.762 11.7494 48.7461 11.498 47.4763 11.498C44.3017 11.498 42.0159 13.0692 42.0159 15.3318C42.0159 17.0286 43.6033 17.9085 44.8731 18.4741C46.1429 19.0398 46.5239 19.4169 46.5239 19.9196C46.5239 20.6738 45.508 21.0509 44.6191 21.0509C43.3493 21.0509 42.6509 20.8624 41.5715 20.4224L41.1271 20.2339L40.6826 22.8106C41.4445 23.1249 42.8413 23.4391 44.3017 23.4391C47.6667 23.4391 49.889 21.8679 49.889 19.4797C49.889 18.1599 49.0636 17.1543 47.1588 16.3373C46.0159 15.7717 45.3175 15.4575 45.3175 14.8918C45.3175 14.389 45.889 13.8863 47.1588 13.8863C48.2382 13.8863 49.0001 14.0748 49.5715 14.3262L49.889 14.4519L50.3969 12.0008Z" fill="#3C58BF"/>
<path d="M50.3969 12.0008C49.762 11.7494 48.7461 11.498 47.4763 11.498C44.3017 11.498 42.5874 13.0692 42.5874 15.3318C42.5874 17.0286 43.6033 17.9085 44.8731 18.4741C46.1429 19.0398 46.5239 19.4169 46.5239 19.9196C46.5239 20.6738 45.508 21.0509 44.6191 21.0509C43.3493 21.0509 42.6509 20.8624 41.5715 20.4224L41.1271 20.2339L40.6826 22.8106C41.4445 23.1249 42.8413 23.4391 44.3017 23.4391C47.6667 23.4391 49.889 21.8679 49.889 19.4797C49.889 18.1599 49.0636 17.1543 47.1588 16.3373C46.0159 15.7717 45.3175 15.4575 45.3175 14.8918C45.3175 14.389 45.889 13.8863 47.1588 13.8863C48.2382 13.8863 49.0001 14.0748 49.5715 14.3262L49.889 14.4519L50.3969 12.0008Z" fill="#293688"/>
<path d="M55.857 11.8752C55.0951 11.8752 54.5237 11.9381 54.2062 12.6923L49.4443 23.1878H52.8729L53.5078 21.3024H57.5713L57.9523 23.1878H60.9999L58.3332 11.8752H55.857ZM54.3967 19.417C54.5872 18.8513 55.6666 16.086 55.6666 16.086C55.6666 16.086 55.9205 15.3947 56.111 14.9548L56.3015 16.0232C56.3015 16.0232 56.9364 18.8513 57.0634 19.4798H54.3967V19.417Z" fill="#3C58BF"/>
<path d="M56.6189 11.8752C55.857 11.8752 55.2856 11.9381 54.9682 12.6923L49.4443 23.1878H52.8729L53.5078 21.3024H57.5713L57.9523 23.1878H60.9999L58.3332 11.8752H56.6189ZM54.3967 19.417C54.6507 18.7885 55.6666 16.086 55.6666 16.086C55.6666 16.086 55.9205 15.3947 56.111 14.9548L56.3015 16.0232C56.3015 16.0232 56.9364 18.8513 57.0634 19.4798H54.3967V19.417Z" fill="#293688"/>
<path d="M29.8254 19.794L29.5079 18.1599C28.9365 16.2745 27.0952 14.2005 25.0635 13.1949L27.9206 23.2506H31.3492L36.492 11.938H33.0635L29.8254 19.794Z" fill="#3C58BF"/>
<path d="M29.8254 19.794L29.5079 18.1599C28.9365 16.2745 27.0952 14.2005 25.0635 13.1949L27.9206 23.2506H31.3492L36.492 11.938H33.6984L29.8254 19.794Z" fill="#293688"/>
<path d="M21 11.8752L21.5714 12.0009C25.6349 12.9437 28.4286 15.3319 29.5079 18.16L28.3651 12.818C28.1746 12.0638 27.6032 11.8752 26.9048 11.8752H21Z" fill="#FFBC00"/>
<path d="M21 11.8752C25.0635 12.818 28.4286 15.269 29.5079 18.0972L28.4286 13.635C28.2381 12.8808 27.6032 12.4409 26.9048 12.4409L21 11.8752Z" fill="#F7981D"/>
<path d="M21 11.8752C25.0635 12.818 28.4286 15.269 29.5079 18.0972L28.746 15.6461C28.5556 14.8919 28.3016 14.1378 27.4127 13.8235L21 11.8752Z" fill="#ED7C00"/>
<path d="M33 19.4169L30.8412 17.28L29.8254 19.6682L29.5714 18.0971C29 16.2116 27.1587 14.1376 25.127 13.1321L27.9841 23.1877H31.4127L33 19.4169Z" fill="#051244"/>
<path d="M38.9046 23.1877L36.1744 20.4224L35.6665 23.1877H38.9046Z" fill="#051244"/>
<path d="M46.2064 19.291C46.4604 19.5424 46.5874 19.731 46.5239 19.9823C46.5239 20.7365 45.508 21.1136 44.6191 21.1136C43.3493 21.1136 42.6509 20.9251 41.5715 20.4851L41.1271 20.2966L40.6826 22.8733C41.4445 23.1876 42.8413 23.5018 44.3017 23.5018C46.3334 23.5018 47.9842 22.9362 48.9366 21.9306L46.2064 19.291Z" fill="#051244"/>
<path d="M49.8887 23.1879H52.8728L53.5077 21.3025H57.5712L57.9522 23.1879H60.9998L59.9204 18.6L56.1109 14.9548L56.3014 15.9604C56.3014 15.9604 56.9363 18.7885 57.0633 19.417H54.3966C54.6506 18.7885 55.6665 16.0861 55.6665 16.0861C55.6665 16.0861 55.9204 15.3948 56.1109 14.9548" fill="#051244"/>
</g>
</mask>
<g mask="url(#mask0_410_2484)">
<rect x="16" y="7" width="49" height="21" fill="white"/>
</g>
<defs>
<clipPath id="clip0_410_2484">
<rect width="40" height="31" fill="white" transform="translate(21 2)"/>
</clipPath>
</defs>
</svg>
