<?xml version="1.0" encoding="utf-8"?><svg viewBox="0 0 32 32" xmlns="http://www.w3.org/2000/svg" xmlns:xlink="http://www.w3.org/1999/xlink"><style>:root>svg{display:none}:root>svg:target{display:block}</style><svg viewBox="0 0 32 32" id="facebook2" xmlns="http://www.w3.org/2000/svg"><path d="M29 0H3C1.35 0 0 1.35 0 3v26c0 1.65 1.35 3 3 3h13V18h-4v-4h4v-2c0-3.306 2.694-6 6-6h4v4h-4c-1.1 0-2 .9-2 2v2h6l-1 4h-5v14h9c1.65 0 3-1.35 3-3V3c0-1.65-1.35-3-3-3z"/></svg><svg viewBox="0 0 32 32" id="instagram" xmlns="http://www.w3.org/2000/svg"><path d="M16 2.881c4.275 0 4.781.019 6.462.094 1.563.069 2.406.331 2.969.55a4.952 4.952 0 011.837 1.194 5.015 5.015 0 011.2 1.838c.219.563.481 1.412.55 2.969.075 1.688.094 2.194.094 6.463s-.019 4.781-.094 6.463c-.069 1.563-.331 2.406-.55 2.969a4.94 4.94 0 01-1.194 1.837 5.02 5.02 0 01-1.837 1.2c-.563.219-1.413.481-2.969.55-1.688.075-2.194.094-6.463.094s-4.781-.019-6.463-.094c-1.563-.069-2.406-.331-2.969-.55a4.952 4.952 0 01-1.838-1.194 5.02 5.02 0 01-1.2-1.837c-.219-.563-.481-1.413-.55-2.969-.075-1.688-.094-2.194-.094-6.463s.019-4.781.094-6.463c.069-1.563.331-2.406.55-2.969a4.964 4.964 0 011.194-1.838 5.015 5.015 0 011.838-1.2c.563-.219 1.412-.481 2.969-.55 1.681-.075 2.188-.094 6.463-.094zM16 0c-4.344 0-4.887.019-6.594.094-1.7.075-2.869.35-3.881.744-1.056.412-1.95.956-2.837 1.85a7.833 7.833 0 00-1.85 2.831C.444 6.538.169 7.7.094 9.4.019 11.113 0 11.656 0 16s.019 4.887.094 6.594c.075 1.7.35 2.869.744 3.881.413 1.056.956 1.95 1.85 2.837a7.82 7.82 0 002.831 1.844c1.019.394 2.181.669 3.881.744 1.706.075 2.25.094 6.594.094s4.888-.019 6.594-.094c1.7-.075 2.869-.35 3.881-.744 1.05-.406 1.944-.956 2.831-1.844s1.438-1.781 1.844-2.831c.394-1.019.669-2.181.744-3.881.075-1.706.094-2.25.094-6.594s-.019-4.887-.094-6.594c-.075-1.7-.35-2.869-.744-3.881a7.506 7.506 0 00-1.831-2.844A7.82 7.82 0 0026.482.843C25.463.449 24.301.174 22.601.099c-1.712-.081-2.256-.1-6.6-.1z"/><path d="M16 7.781c-4.537 0-8.219 3.681-8.219 8.219s3.681 8.219 8.219 8.219 8.219-3.681 8.219-8.219A8.221 8.221 0 0016 7.781zm0 13.55a5.331 5.331 0 110-10.663 5.331 5.331 0 010 10.663zM26.462 7.456a1.919 1.919 0 11-3.838 0 1.919 1.919 0 013.838 0z"/></svg><svg viewBox="0 0 24 24" id="viber" xmlns="http://www.w3.org/2000/svg"><path d="M11.4 0C9.473.028 5.333.344 3.02 2.467 1.302 4.187.696 6.7.633 9.817.57 12.933.488 18.776 6.12 20.36h.003l-.004 2.416s-.037.977.61 1.177c.777.242 1.234-.5 1.98-1.302.407-.44.972-1.084 1.397-1.58 3.85.326 6.812-.416 7.15-.525.776-.252 5.176-.816 5.892-6.657.74-6.02-.36-9.83-2.34-11.546-.596-.55-3.006-2.3-8.375-2.323 0 0-.395-.025-1.037-.017zm.058 1.693c.545-.004.88.017.88.017 4.542.02 6.717 1.388 7.222 1.846 1.675 1.435 2.53 4.868 1.906 9.897v.002c-.604 4.878-4.174 5.184-4.832 5.395-.28.09-2.882.737-6.153.524 0 0-2.436 2.94-3.197 3.704-.12.12-.26.167-.352.144-.13-.033-.166-.188-.165-.414l.02-4.018c-4.762-1.32-4.485-6.292-4.43-8.895.054-2.604.543-4.738 1.996-6.173 1.96-1.773 5.474-2.018 7.11-2.03zm.38 2.602a.304.304 0 00-.004.607c1.624.01 2.946.537 4.028 1.592 1.073 1.046 1.62 2.468 1.633 4.334.002.167.14.3.307.3a.304.304 0 00.3-.304c-.014-1.984-.618-3.596-1.816-4.764-1.19-1.16-2.692-1.753-4.447-1.765zm-3.96.695a.981.981 0 00-.616.117l-.01.002c-.43.247-.816.562-1.146.932-.002.004-.006.004-.008.008-.267.323-.42.638-.46.948a.596.596 0 00-.007.14c0 .136.022.27.065.4l.013.01c.135.48.473 1.276 1.205 2.604.42.768.903 1.5 1.446 2.186.27.344.56.673.87.984l.132.132c.31.308.64.6.984.87a15.524 15.524 0 002.186 1.447c1.328.733 2.126 1.07 2.604 1.206l.01.014a1.275 1.275 0 00.54.055c.31-.036.627-.19.948-.46.004 0 .003-.002.008-.005.37-.33.683-.72.93-1.148l.003-.01c.225-.432.15-.842-.18-1.12-.004 0-.698-.58-1.037-.83-.36-.255-.73-.492-1.113-.71-.51-.285-1.032-.106-1.248.174l-.447.564c-.23.283-.657.246-.657.246-3.12-.796-3.955-3.955-3.955-3.955s-.037-.426.248-.656l.563-.448c.277-.215.456-.737.17-1.248a12.73 12.73 0 00-.71-1.115 28.35 28.35 0 00-.83-1.035.822.822 0 00-.502-.297zm4.49.88a.303.303 0 00-.018.606c1.16.085 2.017.466 2.645 1.15.63.688.93 1.524.906 2.57a.306.306 0 00.61.013c.025-1.175-.334-2.193-1.067-2.994-.74-.81-1.777-1.253-3.05-1.346h-.024zm.463 1.63a.305.305 0 00-.3.287c-.008.167.12.31.288.32.523.028.875.175 1.113.422.24.245.388.62.416 1.164a.304.304 0 00.605-.03c-.03-.644-.215-1.178-.58-1.557-.367-.378-.893-.574-1.52-.607h-.018z"/></svg><svg viewBox="0 0 24 24" id="visa" xmlns="http://www.w3.org/2000/svg"><path d="M9.112 8.262L5.97 15.758H3.92L2.374 9.775c-.094-.368-.175-.503-.461-.658C1.447 8.864.677 8.627 0 8.479l.046-.217h3.3a.904.904 0 01.894.764l.817 4.338 2.018-5.102zm8.033 5.049c.008-1.979-2.736-2.088-2.717-2.972.006-.269.262-.555.822-.628a3.66 3.66 0 011.913.336l.34-1.59a5.207 5.207 0 00-1.814-.333c-1.917 0-3.266 1.02-3.278 2.479-.012 1.079.963 1.68 1.698 2.04.756.367 1.01.603 1.006.931-.005.504-.602.725-1.16.734-.975.015-1.54-.263-1.992-.473l-.351 1.642c.453.208 1.289.39 2.156.398 2.037 0 3.37-1.006 3.377-2.564m5.061 2.447H24l-1.565-7.496h-1.656a.883.883 0 00-.826.55l-2.909 6.946h2.036l.405-1.12h2.488zm-2.163-2.656l1.02-2.815.588 2.815zm-8.16-4.84l-1.603 7.496H8.34l1.605-7.496z"/></svg><svg viewBox="0 0 32 32" id="vk" xmlns="http://www.w3.org/2000/svg"><path d="M29 0H3C1.35 0 0 1.35 0 3v26c0 1.65 1.35 3 3 3h26c1.65 0 3-1.35 3-3V3c0-1.65-1.35-3-3-3zm-3.081 22.4l-2.925.044s-.631.125-1.456-.444c-1.094-.75-2.125-2.706-2.931-2.45-.813.256-.788 2.012-.788 2.012s.006.375-.181.575c-.2.219-.6.262-.6.262h-1.306s-2.888.175-5.431-2.475c-2.775-2.887-5.225-8.619-5.225-8.619s-.144-.375.013-.556c.175-.206.644-.219.644-.219l3.131-.019s.294.05.506.206c.175.125.269.369.269.369s.506 1.281 1.175 2.438c1.306 2.256 1.919 2.75 2.362 2.513.644-.35.45-3.194.45-3.194s.012-1.031-.325-1.488c-.262-.356-.756-.463-.969-.488-.175-.025.113-.431.488-.619.563-.275 1.556-.294 2.731-.281.913.006 1.181.069 1.538.15 1.081.262.712 1.269.712 3.681 0 .775-.137 1.863.419 2.219.238.156.825.025 2.294-2.469.694-1.181 1.219-2.569 1.219-2.569s.113-.25.288-.356c.181-.106.425-.075.425-.075l3.294-.019s.988-.119 1.15.331c.169.469-.369 1.563-1.712 3.356-2.206 2.944-2.456 2.669-.619 4.369 1.75 1.625 2.113 2.419 2.175 2.519.712 1.2-.813 1.294-.813 1.294z"/></svg><svg viewBox="0 0 24 24" id="webmoney" xmlns="http://www.w3.org/2000/svg"><path d="M11.943.182c1.872 0 3.654.43 5.252 1.197.251.113.503.248.753.384l-1.096.97-1.643-1.692-2.832 2.483L10.71 1.74 5.503 6.368l3.334 3.635-1.302 1.128 3.29 3.635-1.302 1.128 4.704 5.17 2.785-2.529 2.421 2.71c-.48.361-1.005.723-1.575 1.039a12.042 12.042 0 01-5.892 1.534C5.366 23.817 0 18.512 0 11.99-.023 5.51 5.343.182 11.943.182zM9.75 11.268l2.855-2.529 2.558 2.822-2.855 2.529zm2.033 4.876l2.832-2.55 2.58 2.821-2.855 2.529zM7.72 6.46l2.854-2.529 2.557 2.822-2.854 2.528zm5.228-1.355l2.124-1.896 1.919 2.099-2.124 1.919zm3.792 8.691l2.123-1.896 1.918 2.121-2.124 1.898zm1.872 4.267l2.124-1.897 1.917 2.1-2.123 1.918zm.868-9.753l1.415-1.264 1.279 1.4-1.416 1.264zm-1.827-4.176l1.416-1.286 1.28 1.422-1.418 1.264zm3.63 8.353l1.416-1.264 1.302 1.4-1.438 1.264zm-6.37-3.138l2.124-1.896 1.918 2.099-2.124 1.897z"/></svg><svg viewBox="0 0 32 32" id="whatsapp" xmlns="http://www.w3.org/2000/svg"><path d="M27.281 4.65C24.287 1.65 20.306 0 16.062 0 7.324 0 .212 7.112.212 15.856c0 2.794.731 5.525 2.119 7.925L.081 32l8.406-2.206a15.858 15.858 0 007.575 1.931h.006c8.738 0 15.856-7.113 15.856-15.856 0-4.238-1.65-8.219-4.644-11.219zm-11.212 24.4a13.17 13.17 0 01-6.713-1.837l-.481-.288-4.987 1.306 1.331-4.863-.313-.5a13.086 13.086 0 01-2.019-7.012c0-7.269 5.912-13.181 13.188-13.181 3.519 0 6.831 1.375 9.319 3.862a13.108 13.108 0 013.856 9.325c-.006 7.275-5.919 13.188-13.181 13.188zm7.225-9.875c-.394-.2-2.344-1.156-2.706-1.288s-.625-.2-.894.2c-.262.394-1.025 1.288-1.256 1.556-.231.262-.462.3-.856.1s-1.675-.619-3.188-1.969c-1.175-1.05-1.975-2.35-2.206-2.744s-.025-.613.175-.806c.181-.175.394-.463.594-.694s.262-.394.394-.662c.131-.262.069-.494-.031-.694s-.894-2.15-1.219-2.944c-.319-.775-.65-.669-.894-.681-.231-.012-.494-.012-.756-.012s-.694.1-1.056.494c-.363.394-1.387 1.356-1.387 3.306s1.419 3.831 1.619 4.1c.2.262 2.794 4.269 6.769 5.981.944.406 1.681.65 2.256.837.95.3 1.813.256 2.494.156.762-.113 2.344-.956 2.675-1.881s.331-1.719.231-1.881c-.094-.175-.356-.275-.756-.475z"/></svg></svg>